<svg width="30" height="30" viewBox="0 0 30 30" fill="none" xmlns="http://www.w3.org/2000/svg">
<g clip-path="url(#clip0_2067_4871)">
<path d="M16.8345 6.98534C16.8052 6.85617 16.734 6.741 16.6327 6.65855C16.5314 6.57611 16.4058 6.53124 16.2765 6.53125H13.7241C13.5947 6.53124 13.4692 6.57611 13.3678 6.65855C13.2665 6.741 13.1954 6.85617 13.166 6.98534C12.2608 10.9751 10.2807 14.9432 7.86978 17.6007C7.78165 17.6981 7.72825 17.8232 7.71826 17.9557C7.70827 18.0882 7.74229 18.2202 7.81478 18.3303L10.581 22.5205C10.4931 22.5297 10.4086 22.5597 10.3341 22.6081C10.2595 22.6565 10.1969 22.722 10.1513 22.7995L9.13883 24.5483L9.13768 24.55C9.00952 24.7657 8.94082 25.0129 8.93891 25.2654C8.93699 25.518 9.00193 25.7663 9.1268 25.9839C9.3766 26.431 9.83666 26.7452 10.385 26.8663V29.4122C10.385 29.568 10.4454 29.7174 10.5528 29.8275C10.6603 29.9377 10.806 29.9996 10.9579 29.9996H19.0403C19.1923 29.9996 19.338 29.9377 19.4455 29.8275C19.5529 29.7174 19.6133 29.568 19.6133 29.4122V26.8668C20.1616 26.7464 20.6222 26.4333 20.8714 25.9869C20.9966 25.7686 21.0615 25.5196 21.0594 25.2664C21.0573 25.0133 20.9882 24.7655 20.8594 24.5494L19.8528 22.8007C19.8069 22.7221 19.7436 22.6557 19.6681 22.6069C19.5925 22.5581 19.5068 22.5283 19.4179 22.5199L22.184 18.3303C22.2567 18.2203 22.2908 18.0882 22.2809 17.9557C22.2709 17.8232 22.2173 17.698 22.129 17.6007C19.7198 14.9432 17.7398 10.9751 16.8345 6.98534ZM18.4691 28.8247H11.532V26.9232H18.4685L18.4691 28.8247ZM19.874 25.1451C19.9267 25.2367 19.9284 25.3143 19.8785 25.4024C19.7829 25.5739 19.509 25.7472 19.1142 25.7472H10.8921C10.4944 25.7472 10.2189 25.5727 10.122 25.3994C10.0733 25.3119 10.0745 25.2356 10.126 25.1451L10.9711 23.6853H19.034L19.874 25.1451ZM18.0411 22.5116H11.96L9.01622 18.0531C11.3269 15.3673 13.2245 11.5626 14.175 7.70552H14.4276V15.6552C13.3287 15.9225 12.506 16.9305 12.506 18.1376C12.506 19.5475 13.625 20.6953 15.0006 20.6953C16.3762 20.6953 17.4951 19.5481 17.4951 18.1376C17.4951 16.9305 16.6724 15.9225 15.5735 15.6552V7.70552H15.8262C16.7767 11.562 18.6742 15.3667 20.9849 18.0531L18.0411 22.5116ZM15.0006 16.756C15.3581 16.7563 15.7009 16.902 15.9537 17.1612C16.2065 17.4203 16.3488 17.7717 16.3493 18.1382C16.3493 18.9007 15.7442 19.521 15.0006 19.521C14.2569 19.521 13.6519 18.9007 13.6519 18.1382C13.6519 17.3758 14.2569 16.756 15.0006 16.756Z" fill="#004080"/>
<path d="M29.4282 15.017H28.5138C28.3007 9.66027 25.0991 5.00078 20.4864 2.90014H25.0693C25.3249 3.88996 26.1974 4.62542 27.2419 4.62542C28.4852 4.62542 29.497 3.58802 29.497 2.31271C29.497 1.0374 28.4852 0.000587386 27.2419 0.000587386C26.1974 0.000587386 25.3249 0.735461 25.0693 1.72528H17.1731C16.9176 0.735461 16.045 0 15.0006 0C13.9561 0 13.0835 0.734874 12.828 1.72469H4.93239C4.67686 0.734874 3.80429 0 2.75983 0C1.51656 0 0.504755 1.0374 0.504755 2.31212C0.504755 3.58684 1.51656 4.62483 2.75983 4.62483C3.80429 4.62483 4.67686 3.88937 4.93239 2.89955H9.5153C4.9026 5.00078 1.70047 9.66027 1.48791 15.017H0.572935C0.420983 15.017 0.275255 15.0789 0.167809 15.1891C0.0603627 15.2993 0 15.4487 0 15.6045V18.6045C0 18.7603 0.0603627 18.9097 0.167809 19.0198C0.275255 19.13 0.420983 19.1919 0.572935 19.1919H3.49891C3.65086 19.1919 3.79659 19.13 3.90404 19.0198C4.01148 18.9097 4.07185 18.7603 4.07185 18.6045V15.6045C4.07185 15.4487 4.01148 15.2993 3.90404 15.1891C3.79659 15.0789 3.65086 15.017 3.49891 15.017H2.63321C2.89103 9.07519 7.17199 4.08616 12.8824 3.08048C13.193 3.97689 14.0203 4.62483 15 4.62483C15.9797 4.62483 16.807 3.97689 17.1176 3.08048C22.828 4.08616 27.109 9.07519 27.3668 15.017H26.5011C26.3491 15.017 26.2034 15.0789 26.096 15.1891C25.9885 15.2993 25.9282 15.4487 25.9282 15.6045V18.6045C25.9282 18.7603 25.9885 18.9097 26.096 19.0198C26.2034 19.13 26.3491 19.1919 26.5011 19.1919H29.4271C29.579 19.1919 29.7247 19.13 29.8322 19.0198C29.9396 18.9097 30 18.7603 30 18.6045V15.6045C30.0002 15.5274 29.9856 15.451 29.957 15.3797C29.9283 15.3084 29.8862 15.2436 29.8331 15.189C29.78 15.1344 29.7169 15.0911 29.6474 15.0616C29.5779 15.0321 29.5034 15.017 29.4282 15.017ZM27.2413 1.17486C27.8526 1.17486 28.3505 1.68533 28.3505 2.31212C28.3505 2.93949 27.8532 3.44997 27.2413 3.44997C26.6294 3.44997 26.1315 2.93949 26.1315 2.31212C26.1321 2.01059 26.2493 1.72159 26.4573 1.50843C26.6653 1.29527 26.9472 1.17532 27.2413 1.17486ZM2.75983 3.44997C2.46573 3.44935 2.18387 3.32925 1.97597 3.11598C1.76807 2.90271 1.65108 2.61365 1.65062 2.31212C1.65062 1.68533 2.14793 1.17486 2.75983 1.17486C3.37172 1.17486 3.8696 1.68533 3.8696 2.31212C3.86914 2.61375 3.75208 2.9029 3.54405 3.11619C3.33603 3.32947 3.05402 3.4495 2.75983 3.44997ZM2.92655 16.1919V18.017H1.14587V16.1919H2.92655ZM15.0006 3.44997C14.7064 3.4495 14.4244 3.32947 14.2163 3.11619C14.0083 2.9029 13.8913 2.61375 13.8908 2.31212C13.8908 1.68533 14.3887 1.17486 15.0006 1.17486C15.6125 1.17486 16.1103 1.68533 16.1103 2.31212C16.1099 2.61375 15.9928 2.9029 15.7848 3.11619C15.5768 3.32947 15.2948 3.4495 15.0006 3.44997ZM28.8553 18.017H27.0752V16.1919H28.8553V18.017Z" fill="#004080"/>
</g>
<defs>
<clipPath id="clip0_2067_4871">
<rect width="30" height="30" fill="white"/>
</clipPath>
</defs>
</svg>
