<svg width="20" height="20" viewBox="0 0 20 20" fill="none" xmlns="http://www.w3.org/2000/svg">
<g clip-path="url(#clip0_2028_3)">
<path d="M5.82334 10.2477C5.82334 9.70912 5.44937 9.3877 4.78943 9.3877C4.52022 9.3877 4.33783 9.41366 4.24219 9.43969V11.1691C4.35526 11.1947 4.49426 11.2035 4.68489 11.2035C5.38899 11.2035 5.82334 10.8474 5.82334 10.2477Z" fill="black"/>
<path d="M9.90743 9.40527C9.61168 9.40527 9.42098 9.43131 9.30762 9.45738V13.289C9.42076 13.3155 9.60326 13.3155 9.7684 13.3155C10.9673 13.3239 11.7493 12.6638 11.7493 11.2649C11.7581 10.048 11.0454 9.40527 9.90743 9.40527Z" fill="black"/>
<path d="M17.7347 7.15391H17.2545V4.8367C17.2545 4.82225 17.2522 4.80769 17.2503 4.79306C17.2495 4.70104 17.2203 4.61067 17.1573 4.53906L13.3012 0.134132C13.3 0.133006 13.2989 0.132607 13.2981 0.131372C13.2751 0.105701 13.2483 0.0843499 13.22 0.0658677C13.2116 0.0602395 13.2031 0.0555191 13.1943 0.0506535C13.1698 0.0372548 13.1438 0.0261437 13.117 0.0181191C13.1097 0.0160857 13.1032 0.0131082 13.0959 0.01122C13.0668 0.00432098 13.0365 0 13.0059 0H3.52903C3.09627 0 2.74471 0.35196 2.74471 0.784349V7.15373H2.26458C1.64551 7.15373 1.14355 7.65547 1.14355 8.27475V14.1043C1.14355 14.7231 1.64551 15.2252 2.26458 15.2252H2.74475V19.2157C2.74475 19.648 3.09631 20 3.52906 20H16.4702C16.9026 20 17.2545 19.648 17.2545 19.2157V15.2252H17.7348C18.3537 15.2252 18.8557 14.7231 18.8557 14.1043V8.27493C18.8557 7.65569 18.3536 7.15391 17.7347 7.15391ZM3.52903 0.784494H12.6137V4.7973C12.6137 5.01397 12.7895 5.18946 13.0059 5.18946H16.4702V7.15416H3.52903V0.784494ZM13.1571 11.2209C13.1571 12.342 12.7489 13.115 12.1833 13.5931C11.5671 14.1057 10.6285 14.3489 9.48192 14.3489C8.79565 14.3489 8.30919 14.3055 7.97862 14.2622V8.50997C8.46515 8.43194 9.09982 8.38847 9.76888 8.38847C10.8804 8.38847 11.6018 8.58847 12.1668 9.01396C12.7748 9.46585 13.1571 10.1869 13.1571 11.2209ZM2.9299 14.2882V8.50997C3.33807 8.44083 3.91181 8.38847 4.71987 8.38847C5.53654 8.38847 6.11882 8.5449 6.50967 8.8579C6.88338 9.15314 7.13476 9.63982 7.13476 10.2133C7.13476 10.787 6.94413 11.2735 6.5963 11.6035C6.14453 12.0293 5.47557 12.2206 4.69337 12.2206C4.51987 12.2206 4.36294 12.2118 4.24184 12.1943V14.2884H2.9299V14.2882ZM16.4702 19.0033H3.52903V15.2252H16.4702V19.0033H16.4702ZM17.6066 9.51803H15.3558V10.8561H17.4586V11.9336H15.3558V14.2883H14.027V8.43194H17.6066V9.51803Z" fill="black"/>
</g>
<defs>
<clipPath id="clip0_2028_3">
<rect width="20" height="20" fill="white"/>
</clipPath>
</defs>
</svg>
