<svg width="40" height="40" viewBox="0 0 40 40" fill="none" xmlns="http://www.w3.org/2000/svg">
<g clip-path="url(#clip0_2083_4887)">
<path fill-rule="evenodd" clip-rule="evenodd" d="M31.215 7.5H25C24.31 7.5 23.75 8.06 23.75 8.75C23.75 9.44125 24.31 10 25 10H28.285L22.2875 15.9988L24.055 17.7663L30.0275 11.7937L30 15C30 15.6912 30.56 16.25 31.25 16.25C31.94 16.25 32.5 15.6912 32.5 15V8.75C32.5 8.38 32.3463 8.08128 32.105 7.87628C31.8775 7.64378 31.5638 7.5 31.215 7.5ZM37.5 35C37.5 36.375 36.38 37.5 35 37.5H5C3.62 37.5 2.5 36.375 2.5 35V5C2.5 3.62 3.62 2.5 5 2.5H35C36.38 2.5 37.5 3.62 37.5 5V35ZM35 0H5C2.23875 0 0 2.23875 0 5V35C0 37.7625 2.23875 40 5 40H35C37.7613 40 40 37.7625 40 35V5C40 2.23875 37.7613 0 35 0ZM15.945 22.2375L9.9725 28.2125L10 25C10 24.3125 9.44 23.75 8.75 23.75C8.06 23.75 7.5 24.3125 7.5 25V31.25C7.5 31.625 7.65374 31.925 7.89499 32.125C8.12124 32.35 8.43625 32.5 8.785 32.5H15C15.69 32.5 16.25 31.9375 16.25 31.25C16.25 30.5625 15.69 30 15 30H11.715L17.7125 24L15.945 22.2375ZM31.25 23.75C30.56 23.75 30 24.3125 30 25L30.0275 28.2125L24.055 22.2375L22.2875 24L28.285 30H25C24.31 30 23.75 30.5625 23.75 31.25C23.75 31.9375 24.31 32.5 25 32.5H31.215C31.5638 32.5 31.8788 32.35 32.105 32.125C32.3463 31.925 32.5 31.625 32.5 31.25V25C32.5 24.3125 31.94 23.75 31.25 23.75ZM15 10C15.69 10 16.25 9.44125 16.25 8.75C16.25 8.06 15.69 7.5 15 7.5H8.785C8.43625 7.5 8.12249 7.64378 7.89499 7.87628C7.65374 8.08128 7.5 8.38 7.5 8.75V15C7.5 15.6912 8.06 16.25 8.75 16.25C9.44 16.25 10 15.6912 10 15L9.9725 11.7937L15.945 17.7663L17.7125 15.9988L11.715 10H15Z" fill="white"/>
</g>
<defs>
<clipPath id="clip0_2083_4887">
<rect width="40" height="40" fill="white"/>
</clipPath>
</defs>
</svg>
